<svg xmlns="http://www.w3.org/2000/svg" viewBox="0 0 80 80"><defs><style>.cls-1{fill:none;stroke:#222160;stroke-miterlimit:10;stroke-width:2.34px;}</style></defs><g id="Layer_2" data-name="Layer 2"><path class="cls-1" d="M59.49,15.85l-4.84-.16-.16,7.57h-5.6l0-8.81-9.14-3-9,8.12-3.65-2.37c-.08,0-8.54,7-8.54,7s-.8,5.12-.94,5.34S5.39,37.21,5.39,37.78C5,40,4.63,42.23,4.21,44.45h0v0c0,.36,7.08,8.63,7.09,8.81s-.19,5.64-.19,5.64l5.53,2.46s3.26-3.92,3.39-3.91l4.38.7h.1c-.1,0,3-4.47,3-4.51L36,51.44h0S43.07,58,43.07,58s2.4-.77,2.55-.76,2.58,2.93,3.64,4.31l3.12,4.07c.31.49,8.2,3.09,8.34,3.1S66.52,67,66.52,67l9.23-13.41L74.23,41.35,64.89,29l-1.65-7.68-3.73-2.52Z"/><polygon class="cls-1" points="58.45 71.97 60.89 72.24 63.07 71.16 64.24 72.7 62.78 76.16 61.35 78.04 56.34 75.17 58.45 71.97"/></g></svg>