<svg xmlns="http://www.w3.org/2000/svg" viewBox="0 0 80 80"><defs><style>.cls-1{fill:none;stroke:#28245f;stroke-miterlimit:10;stroke-width:2.34px;}.cls-2{fill:#e61e2a;}</style></defs><g id="Layer_2" data-name="Layer 2"><path class="cls-1" d="M57.4,75.71h0Z"/><ellipse class="cls-1" cx="39.41" cy="30.69" rx="17.98" ry="17.97" transform="translate(-0.05 0.06) rotate(-0.09)"/><path class="cls-1" d="M66.23,30.64a26.91,26.91,0,0,0-26.82-27c-14.8,0-26.81,13.56-26.81,27,0,17.93,26.81,36.09,26.81,36.09S66.23,48.57,66.23,30.64Z"/><path class="cls-2" d="M37.6,21.68v1.95h-4V27.7h-3v6h3v4.07h4v2h2.12a9.27,9.27,0,0,0,9.32-9,9.07,9.07,0,0,0-9-9Z"/></g></svg>