<svg xmlns="http://www.w3.org/2000/svg" viewBox="0 0 80 80"><defs><style>.cls-1{fill:none;stroke:#28245f;stroke-miterlimit:10;stroke-width:2.34px;}.cls-2{fill:#e61e2a;}</style></defs><g id="Layer_2" data-name="Layer 2"><path class="cls-1" d="M57.68,30.88A17.76,17.76,0,1,1,39.92,13,17.81,17.81,0,0,1,57.68,30.88Z"/><path class="cls-1" d="M66.72,30.82a26.79,26.79,0,1,1-26.79-27A26.87,26.87,0,0,1,66.72,30.82Z"/><polyline class="cls-1" points="25.85 53.67 12.68 66.84 21.93 66.87 21.97 76.14 40.13 57.98"/><polyline class="cls-1" points="54.15 53.67 67.32 66.84 58.08 66.87 58.03 76.14 39.88 57.98"/><path class="cls-2" d="M37.65,22v2h-4v4.09h-3v6h3v4.09h4v2h2.13a9.31,9.31,0,0,0,9.36-9A9.11,9.11,0,0,0,40.07,22Z"/></g></svg>